<svg xmlns="http://www.w3.org/2000/svg" xmlns:xlink="http://www.w3.org/1999/xlink" contentStyleType="text/css" height="672px" preserveAspectRatio="none" style="width:1911px;height:672px;background:#FFFFFF;" version="1.1" viewBox="0 0 1911 672" width="1911px" zoomAndPan="magnify"><defs/><g><!--cluster d77d5e503ad1439f585ac494268b351b--><g id="cluster_d77d5e503ad1439f585ac494268b351b"><polygon fill="none" points="1522,16,1532,6,1894,6,1894,196.08,1884,206.08,1522,206.08,1522,16" style="stroke:#181818;stroke-width:1.0;"/><line style="stroke:#181818;stroke-width:1.0;" x1="1884" x2="1894" y1="16" y2="6"/><line style="stroke:#181818;stroke-width:1.0;" x1="1522" x2="1884" y1="16" y2="16"/><line style="stroke:#181818;stroke-width:1.0;" x1="1884" x2="1884" y1="16" y2="206.08"/><text fill="#000000" font-family="sans-serif" font-size="14" font-weight="bold" lengthAdjust="spacing" textLength="21" x="1693.5" y="31.9951">Db</text></g><!--cluster cf1e8c14e54505f60aa10ceb8d5d8ab3--><g id="cluster_cf1e8c14e54505f60aa10ceb8d5d8ab3"><polygon fill="none" points="16,32.29,26,22.29,682,22.29,682,317.08,672,327.08,16,327.08,16,32.29" style="stroke:#181818;stroke-width:1.0;"/><line style="stroke:#181818;stroke-width:1.0;" x1="672" x2="682" y1="32.29" y2="22.29"/><line style="stroke:#181818;stroke-width:1.0;" x1="16" x2="672" y1="32.29" y2="32.29"/><line style="stroke:#181818;stroke-width:1.0;" x1="672" x2="672" y1="32.29" y2="327.08"/><text fill="#000000" font-family="sans-serif" font-size="14" font-weight="bold" lengthAdjust="spacing" textLength="53" x="318.5" y="48.2851">Server</text></g><!--cluster 62608e08adc29a8d6dbc9754e659f125--><g id="cluster_62608e08adc29a8d6dbc9754e659f125"><polygon fill="none" points="706,32.29,716,22.29,1498,22.29,1498,554.37,1488,564.37,706,564.37,706,32.29" style="stroke:#181818;stroke-width:1.0;"/><line style="stroke:#181818;stroke-width:1.0;" x1="1488" x2="1498" y1="32.29" y2="22.29"/><line style="stroke:#181818;stroke-width:1.0;" x1="706" x2="1488" y1="32.29" y2="32.29"/><line style="stroke:#181818;stroke-width:1.0;" x1="1488" x2="1488" y1="32.29" y2="564.37"/><text fill="#000000" font-family="sans-serif" font-size="14" font-weight="bold" lengthAdjust="spacing" textLength="45" x="1075.5" y="48.2851">Client</text></g><!--entity 173108f73228b20902c5274fb08542b7--><g id="elem_173108f73228b20902c5274fb08542b7"><rect fill="#F1F1F1" height="144.0781" rx="2.5" ry="2.5" style="stroke:#181818;stroke-width:0.5;" width="341" x="1537.5" y="46"/><rect fill="#F1F1F1" height="10" style="stroke:#181818;stroke-width:0.5;" width="15" x="1858.5" y="51"/><rect fill="#F1F1F1" height="2" style="stroke:#181818;stroke-width:0.5;" width="4" x="1856.5" y="53"/><rect fill="#F1F1F1" height="2" style="stroke:#181818;stroke-width:0.5;" width="4" x="1856.5" y="57"/><text fill="#000000" font-family="sans-serif" font-size="14" font-weight="bold" lengthAdjust="spacing" textLength="169" x="1552.5" y="78.9951">worldproxy_database</text><text fill="#000000" font-family="sans-serif" font-size="14" lengthAdjust="spacing" textLength="4" x="1552.5" y="95.292">&#160;</text><text fill="#000000" font-family="sans-serif" font-size="14" lengthAdjust="spacing" textLength="113" x="1552.5" y="111.5889">image: postgres</text><text fill="#000000" font-family="sans-serif" font-size="14" lengthAdjust="spacing" textLength="287" x="1552.5" y="127.8857">environment: POSTGRES_DB=worldproxy</text><text fill="#000000" font-family="sans-serif" font-size="14" lengthAdjust="spacing" textLength="292" x="1552.5" y="144.1826">environment: POSTGRES_USER=postgres</text><text fill="#000000" font-family="sans-serif" font-size="14" lengthAdjust="spacing" textLength="301" x="1552.5" y="160.4795">environment: POSTGRES_PASSWORD=root</text><text fill="#000000" font-family="sans-serif" font-size="14" lengthAdjust="spacing" textLength="4" x="1552.5" y="176.7764">&#160;</text></g><!--entity bf213d646025845cec9ad18581e647d5--><g id="elem_bf213d646025845cec9ad18581e647d5"><rect fill="#F1F1F1" height="111.4844" rx="2.5" ry="2.5" style="stroke:#181818;stroke-width:0.5;" width="635" x="31.5" y="62.29"/><rect fill="#F1F1F1" height="10" style="stroke:#181818;stroke-width:0.5;" width="15" x="646.5" y="67.29"/><rect fill="#F1F1F1" height="2" style="stroke:#181818;stroke-width:0.5;" width="4" x="644.5" y="69.29"/><rect fill="#F1F1F1" height="2" style="stroke:#181818;stroke-width:0.5;" width="4" x="644.5" y="73.29"/><text fill="#000000" font-family="sans-serif" font-size="14" font-weight="bold" lengthAdjust="spacing" textLength="149" x="46.5" y="95.2851">worldproxy_server</text><text fill="#000000" font-family="sans-serif" font-size="14" lengthAdjust="spacing" textLength="4" x="46.5" y="111.582">&#160;</text><text fill="#000000" font-family="sans-serif" font-size="14" lengthAdjust="spacing" textLength="595" x="46.5" y="127.8789">environment: SECRET_KEY=(9#(q@qq!t+azn)4!&amp;8)k93f5ji@9z%vs&amp;_qn_ys(insecure)</text><text fill="#000000" font-family="sans-serif" font-size="14" lengthAdjust="spacing" textLength="500" x="46.5" y="144.1757">environment: DATABASE_URL=postgres://postgres:root@db/worldproxy</text><text fill="#000000" font-family="sans-serif" font-size="14" lengthAdjust="spacing" textLength="4" x="46.5" y="160.4726">&#160;</text></g><!--entity 35e550e34312baaf35b8e556c3c3104a--><g id="elem_35e550e34312baaf35b8e556c3c3104a"><ellipse cx="349" cy="282.08" fill="#F1F1F1" rx="8" ry="8" style="stroke:#181818;stroke-width:0.5;"/><text fill="#000000" font-family="sans-serif" font-size="14" lengthAdjust="spacing" textLength="36" x="331" y="312.0751">8000</text></g><!--entity e6a2040f1f85a6dc4b82a9764055aa78--><g id="elem_e6a2040f1f85a6dc4b82a9764055aa78"><rect fill="#F1F1F1" height="111.4844" rx="2.5" ry="2.5" style="stroke:#181818;stroke-width:0.5;" width="760" x="722" y="62.29"/><rect fill="#F1F1F1" height="10" style="stroke:#181818;stroke-width:0.5;" width="15" x="1462" y="67.29"/><rect fill="#F1F1F1" height="2" style="stroke:#181818;stroke-width:0.5;" width="4" x="1460" y="69.29"/><rect fill="#F1F1F1" height="2" style="stroke:#181818;stroke-width:0.5;" width="4" x="1460" y="73.29"/><text fill="#000000" font-family="sans-serif" font-size="14" font-weight="bold" lengthAdjust="spacing" textLength="140" x="737" y="95.2851">worldproxy_client</text><text fill="#000000" font-family="sans-serif" font-size="14" lengthAdjust="spacing" textLength="4" x="737" y="111.582">&#160;</text><text fill="#000000" font-family="sans-serif" font-size="14" lengthAdjust="spacing" textLength="720" x="737" y="127.8789">environment: VITE_COUNTRIES_BORDERS_GEOJSON=https://datahub.io/core/geo-countries/r/0.geojson</text><text fill="#000000" font-family="sans-serif" font-size="14" lengthAdjust="spacing" textLength="422" x="737" y="144.1757">environment: VITE_SERVER_ADDRESS=http://localhost:8000</text><text fill="#000000" font-family="sans-serif" font-size="14" lengthAdjust="spacing" textLength="4" x="737" y="160.4726">&#160;</text></g><!--entity 84d7b7daf8d3dca9893faf446c771a74--><g id="elem_84d7b7daf8d3dca9893faf446c771a74"><ellipse cx="1360" cy="282.08" fill="#F1F1F1" rx="8" ry="8" style="stroke:#181818;stroke-width:0.5;"/><text fill="#000000" font-family="sans-serif" font-size="14" lengthAdjust="spacing" textLength="36" x="1342" y="312.0751">5173</text></g><!--entity 9aadb28112423f8c0d1512ef9c783ea2--><g id="elem_9aadb28112423f8c0d1512ef9c783ea2"><rect fill="#F1F1F1" height="39.2969" rx="2.5" ry="2.5" style="stroke:#181818;stroke-width:0.5;" width="114" x="961" y="509.08"/><polygon fill="#F1F1F1" points="1058,514.08,1058,528.08,1070,528.08,1070,520.08,1064,514.08,1058,514.08" style="stroke:#181818;stroke-width:0.5;"/><line style="stroke:#181818;stroke-width:0.5;" x1="1064" x2="1064" y1="514.08" y2="520.08"/><line style="stroke:#181818;stroke-width:0.5;" x1="1070" x2="1064" y1="520.08" y2="520.08"/><text fill="#000000" font-family="sans-serif" font-size="14" lengthAdjust="spacing" textLength="84" x="971" y="535.0751">/usr/src/app</text></g><!--entity 980dc8553d9ea82ead9db20e2054a5a4--><g id="elem_980dc8553d9ea82ead9db20e2054a5a4"><rect fill="#F1F1F1" height="39.2969" rx="2.5" ry="2.5" style="stroke:#181818;stroke-width:0.5;" width="222" x="1110" y="509.08"/><polygon fill="#F1F1F1" points="1315,514.08,1315,528.08,1327,528.08,1327,520.08,1321,514.08,1315,514.08" style="stroke:#181818;stroke-width:0.5;"/><line style="stroke:#181818;stroke-width:0.5;" x1="1321" x2="1321" y1="514.08" y2="520.08"/><line style="stroke:#181818;stroke-width:0.5;" x1="1327" x2="1321" y1="520.08" y2="520.08"/><text fill="#000000" font-family="sans-serif" font-size="14" lengthAdjust="spacing" textLength="192" x="1120" y="535.0751">/usr/src/app/node_modules</text></g><!--entity 1624c420083928ef3e240dd88f2e52f0--><g id="elem_1624c420083928ef3e240dd88f2e52f0"><ellipse cx="349" cy="419.08" fill="#F1F1F1" rx="8" ry="8" style="stroke:#181818;stroke-width:0.5;"/><text fill="#000000" font-family="sans-serif" font-size="14" lengthAdjust="spacing" textLength="36" x="331" y="449.0751">8000</text></g><!--entity 94c01efac654f4e59016a8e3fe1554df--><g id="elem_94c01efac654f4e59016a8e3fe1554df"><ellipse cx="1541" cy="419.08" fill="#F1F1F1" rx="8" ry="8" style="stroke:#181818;stroke-width:0.5;"/><text fill="#000000" font-family="sans-serif" font-size="14" lengthAdjust="spacing" textLength="36" x="1523" y="449.0751">5173</text></g><!--entity 58b9e70b65a77700ba66e9c64d6b9f89--><g id="elem_58b9e70b65a77700ba66e9c64d6b9f89"><rect fill="#F1F1F1" height="39.2969" rx="2.5" ry="2.5" style="stroke:#181818;stroke-width:0.5;" width="34" x="1001" y="627.37"/><polygon fill="#F1F1F1" points="1018,632.37,1018,646.37,1030,646.37,1030,638.37,1024,632.37,1018,632.37" style="stroke:#181818;stroke-width:0.5;"/><line style="stroke:#181818;stroke-width:0.5;" x1="1024" x2="1024" y1="632.37" y2="638.37"/><line style="stroke:#181818;stroke-width:0.5;" x1="1030" x2="1024" y1="638.37" y2="638.37"/><text fill="#000000" font-family="sans-serif" font-size="14" lengthAdjust="spacing" textLength="4" x="1011" y="653.3651">.</text></g><!--entity 5584bfb19438fe1d6216ceef7546cbca--><g id="elem_5584bfb19438fe1d6216ceef7546cbca"><rect fill="#F1F1F1" height="39.2969" rx="2.5" ry="2.5" style="stroke:#181818;stroke-width:0.5;" width="222" x="1110" y="627.37"/><polygon fill="#F1F1F1" points="1315,632.37,1315,646.37,1327,646.37,1327,638.37,1321,632.37,1315,632.37" style="stroke:#181818;stroke-width:0.5;"/><line style="stroke:#181818;stroke-width:0.5;" x1="1321" x2="1321" y1="632.37" y2="638.37"/><line style="stroke:#181818;stroke-width:0.5;" x1="1327" x2="1321" y1="638.37" y2="638.37"/><text fill="#000000" font-family="sans-serif" font-size="14" lengthAdjust="spacing" textLength="192" x="1120" y="653.3651">/usr/src/app/node_modules</text></g><!--link bf213d646025845cec9ad18581e647d5 to 35e550e34312baaf35b8e556c3c3104a--><g id="link_bf213d646025845cec9ad18581e647d5_35e550e34312baaf35b8e556c3c3104a"><path codeLine="39" d="M349,173.9 C349,210.62 349,255.38 349,273.21 " fill="none" id="bf213d646025845cec9ad18581e647d5-35e550e34312baaf35b8e556c3c3104a" style="stroke:#181818;stroke-width:1.0;"/></g><!--link 35e550e34312baaf35b8e556c3c3104a to 1624c420083928ef3e240dd88f2e52f0--><g id="link_35e550e34312baaf35b8e556c3c3104a_1624c420083928ef3e240dd88f2e52f0"><path codeLine="40" d="M349,290.72 C349,314.37 349,386.19 349,410.18 " fill="none" id="35e550e34312baaf35b8e556c3c3104a-1624c420083928ef3e240dd88f2e52f0" style="stroke:#181818;stroke-width:1.0;"/></g><!--link e6a2040f1f85a6dc4b82a9764055aa78 to 84d7b7daf8d3dca9893faf446c771a74--><g id="link_e6a2040f1f85a6dc4b82a9764055aa78_84d7b7daf8d3dca9893faf446c771a74"><path codeLine="41" d="M1189.71,174.12 C1250.77,212.47 1325.63,259.49 1351.06,275.46 " fill="none" id="e6a2040f1f85a6dc4b82a9764055aa78-84d7b7daf8d3dca9893faf446c771a74" style="stroke:#181818;stroke-width:1.0;"/></g><!--link 84d7b7daf8d3dca9893faf446c771a74 to 94c01efac654f4e59016a8e3fe1554df--><g id="link_84d7b7daf8d3dca9893faf446c771a74_94c01efac654f4e59016a8e3fe1554df"><path codeLine="42" d="M1368.73,289.59 C1399.38,312.45 1501.85,388.87 1532.36,411.63 " fill="none" id="84d7b7daf8d3dca9893faf446c771a74-94c01efac654f4e59016a8e3fe1554df" style="stroke:#181818;stroke-width:1.0;"/></g><!--link 9aadb28112423f8c0d1512ef9c783ea2 to 58b9e70b65a77700ba66e9c64d6b9f89--><g id="link_9aadb28112423f8c0d1512ef9c783ea2_58b9e70b65a77700ba66e9c64d6b9f89"><path codeLine="43" d="M1018,548.67 C1018,570.29 1018,605.46 1018,627.09 " fill="none" id="9aadb28112423f8c0d1512ef9c783ea2-58b9e70b65a77700ba66e9c64d6b9f89" style="stroke:#181818;stroke-width:1.0;"/><text fill="#000000" font-family="sans-serif" font-size="13" lengthAdjust="spacing" textLength="14" x="1019" y="593.4369">rw</text></g><!--link e6a2040f1f85a6dc4b82a9764055aa78 to 9aadb28112423f8c0d1512ef9c783ea2--><g id="link_e6a2040f1f85a6dc4b82a9764055aa78_9aadb28112423f8c0d1512ef9c783ea2"><path codeLine="44" d="M1090.67,174.15 C1071.64,266.75 1035.3381,443.3629 1023.1381,502.7129 " fill="none" id="e6a2040f1f85a6dc4b82a9764055aa78-to-9aadb28112423f8c0d1512ef9c783ea2" style="stroke:#181818;stroke-width:1.0;stroke-dasharray:7.0,7.0;"/><polygon fill="#181818" points="1021.93,508.59,1027.6602,500.5797,1022.9368,503.6924,1019.8241,498.9689,1021.93,508.59" style="stroke:#181818;stroke-width:1.0;"/><text fill="#000000" font-family="sans-serif" font-size="13" lengthAdjust="spacing" textLength="23" x="1056" y="356.1469">use</text></g><!--link 980dc8553d9ea82ead9db20e2054a5a4 to 5584bfb19438fe1d6216ceef7546cbca--><g id="link_980dc8553d9ea82ead9db20e2054a5a4_5584bfb19438fe1d6216ceef7546cbca"><path codeLine="45" d="M1221,548.67 C1221,570.29 1221,605.46 1221,627.09 " fill="none" id="980dc8553d9ea82ead9db20e2054a5a4-5584bfb19438fe1d6216ceef7546cbca" style="stroke:#181818;stroke-width:1.0;"/></g><!--link e6a2040f1f85a6dc4b82a9764055aa78 to 980dc8553d9ea82ead9db20e2054a5a4--><g id="link_e6a2040f1f85a6dc4b82a9764055aa78_980dc8553d9ea82ead9db20e2054a5a4"><path codeLine="46" d="M1118.05,174.15 C1145.01,266.75 1196.4727,443.4792 1213.7527,502.8292 " fill="none" id="e6a2040f1f85a6dc4b82a9764055aa78-to-980dc8553d9ea82ead9db20e2054a5a4" style="stroke:#181818;stroke-width:1.0;stroke-dasharray:7.0,7.0;"/><polygon fill="#181818" points="1215.43,508.59,1216.7546,498.8306,1214.0323,503.7893,1209.0736,501.067,1215.43,508.59" style="stroke:#181818;stroke-width:1.0;"/><text fill="#000000" font-family="sans-serif" font-size="13" lengthAdjust="spacing" textLength="23" x="1173" y="356.1469">use</text></g><!--SRC=[ZLDjRzis4FwkNw5wM95aYCLtaGOyn8cDejrG5vRJOHW6uqWU4tUsv4XoqdROVo-jjbdThL2_4SJTS_Uy76msrSDs_NPTtYHbvJ4TJEqWXIRrUUubIiB1Ky5Da5g24qOmfIsNrAP_9wchjhkgnB9DQSufqI7dZ6dBY27CIPQBO8cMWjay_ICvEtkewetVrTNRToiFBLXeyEmiITPRkC5HkgkQzgR69i7oVbrNvJRYZj9NysBvR34hLjFByR_ztwYvBcQBSG_EgqbH_3PVJCTrLRL9ycVopoVU1TRtM7VSNQ2e7HKeXIGoA090YKEhlVGQB3_cRWEZt2kX29DQI8VEHCsqr1ILY29-pRtf1XsO7srOpAuMi-NgbzdlunFpmydTnTtTa_OdU5-UYYTFzUbVXWVvPdrXtlzutpnTtPMhTyt9kcpGxMiyFOQQJfQJoqanMrqlVdtKOvHbZyy3zmjlioyKZKgSdAO3JGZfDE3HV4cG2qwP1GXSMXr_bECkMYtWKRUhpJeExNeKKqGZqU0TCw2zyjQPN0fKqWJAvB5kg80HGG8DCLhAEs4r0vChGQG4oFNNkhbkq7zqU_ryELjTpQzVBXVFex-NqTlPebWzcyrV5FENuzkstHsu7n9tkxV3TPMvgiRi1gjpL-tBjbvZazKP6SQVDqrL_WzwZDNhsM8rcKvZWeeECY9kAWURsoZfw23QPm5bF8LE32ryRdCFGNlk7HWT3OGWX79vJY4N2TJjEe1hqq6sR-gigLq6krtNQm2yPPfI9XWFsX5F9MKOZCirHs3VwCqEZgosbTzliFa8f8btMahk3O9c2Dv4O8ACI04IH7Jno7Mgc7224QAvOHe3HoQ8zre7Xf85SapH24SenZsK525UYo5KWKOUa4efVFXYpM7N8BKrc1Eh9EHvJeW5fT0u9Roo9cZptRnal3GRB3M2wpZDAqQLGmmnRCfP1qdlKPxxy_wCznLqABsQzGRzWD8Rbxw23gNNaRvaTIXzDgMZT50_3Fg93OT-EFovDyu7l7s3WwGlhX-tw_F-kzVgc_PfhGy0]--></g></svg>